HIERARCHY
ROOT Hips
{
  OFFSET 90.0699 94.1611 -346.847
  CHANNELS 6 Xposition Yposition Zposition Zrotation Xrotation Yrotation
  JOINT RightUpLeg
  {
    OFFSET -8.9458 -8.66707 0.101652
    CHANNELS 3 Zrotation Xrotation Yrotation
    JOINT RightLeg
    {
      OFFSET 0 -44.4227 1.3727
      CHANNELS 3 Zrotation Xrotation Yrotation
      JOINT RightFoot
      {
        OFFSET 0.253549 -42.0924 -1.46059
        CHANNELS 3 Zrotation Xrotation Yrotation
        JOINT RightToes
        {
          OFFSET 0.04 -4.41509 8.4991
          CHANNELS 3 Zrotation Xrotation Yrotation
          End Site
          {
            OFFSET -0.08 -0.137448 9.77979
          }
        }
      }
    }
  }
  JOINT Spine
  {
    OFFSET 0 11.8905 0
    CHANNELS 3 Zrotation Xrotation Yrotation
    JOINT Spine1
    {
      OFFSET 0 25.6574 0.127663
      CHANNELS 3 Zrotation Xrotation Yrotation
      JOINT HEad
      {
        OFFSET 0 8.73416 0.011341
        CHANNELS 3 Zrotation Xrotation Yrotation
        End Site
        {
          OFFSET -0.29 12.7742 2.51395
        }
      }
      JOINT LeftShoulder1
      {
        OFFSET 8.99 -0.362252 -0.22
        CHANNELS 3 Zrotation Xrotation Yrotation
        JOINT LeftArm
        {
          OFFSET 10.2827 -0.00338 0.322123
          CHANNELS 3 Zrotation Xrotation Yrotation
          JOINT LeftForeArm
          {
            OFFSET 32.7669 0.099144 -1.42434
            CHANNELS 3 Zrotation Xrotation Yrotation
            JOINT LeftHand
            {
              OFFSET 27.5643 0.085362 1.02216
              CHANNELS 3 Zrotation Xrotation Yrotation
              End Site
              {
                OFFSET 16.7443 -0.6 1.50291
              }
            }
          }
        }
      }
      JOINT RightShoulder
      {
        OFFSET -8.99 -0.362252 -0.22
        CHANNELS 3 Zrotation Xrotation Yrotation
        JOINT RightArm
        {
          OFFSET -10.2827 -0.00338 0.322123
          CHANNELS 3 Zrotation Xrotation Yrotation
          JOINT RightForeArm
          {
            OFFSET -32.8971 0.099144 -1.42434
            CHANNELS 3 Zrotation Xrotation Yrotation
            JOINT RightHand
            {
              OFFSET -27.4921 0.085362 1.02216
              CHANNELS 3 Zrotation Xrotation Yrotation
              End Site
              {
                OFFSET -16.6312 -0.6 1.50291
              }
            }
          }
        }
      }
    }
  }
  JOINT LeftUpLeg
  {
    OFFSET 8.9458 -8.66707 0.101652
    CHANNELS 3 Zrotation Xrotation Yrotation
    JOINT LeftLeg
    {
      OFFSET 0 -44.4227 1.3727
      CHANNELS 3 Zrotation Xrotation Yrotation
      JOINT LeftFoot
      {
        OFFSET -0.253549 -42.0924 -1.46059
        CHANNELS 3 Zrotation Xrotation Yrotation
        JOINT LeftToes
        {
          OFFSET -0.04 -4.41509 8.4991
          CHANNELS 3 Zrotation Xrotation Yrotation
          End Site
          {
            OFFSET 0.08 -0.047448 9.77979
          }
        }
      }
    }
  }
}
MOTION
Frames:	17
Frame Time:	0.0166667
94.0765 88.3979 -322.477 15.1112 -24.8721 40.4758 -82.5515 -55.8285 -77.6191 -144.597 46.6011 163.572 23.1263 6.06031 -7.83513 0.0462048 0.000533403 0.662642 -5.9908 44.485 -3.97215 -9.97094 -3.46782 -0.682594 12.861 11.5997 -23.4033 -1.21756e-015 -1.83876e-015 3.18055e-015 -97.8909 -21.3367 -69.1173 -57.3177 49.6892 -60.3413 15.924 17.8298 -11.0344 34.0844 5.83861 -3.97171 108.984 -37.9744 98.5556 30.6278 51.9246 77.3389 15.8995 21.0247 1.0508 -0.0306687 -4.53582 -18.7886 -47.6123 42.2185 88.8507 42.6073 -17.8999 1.66442 -1.70302e-008 1.55986e-007 -4.8394e-009 
94.2922 88.5331 -324.583 13.0396 -23.8878 37.028 -68.2521 -57.6841 -75.6735 -130.392 47.0557 145.693 22.2747 2.64762 -9.75767 0.0462048 0.000533403 0.662642 -4.99592 45.7026 -4.31434 -9.34529 -3.2588 -0.605183 13.662 11.4778 -23.3051 -1.19271e-015 3.18055e-015 3.18055e-015 -99.8071 -22.383 -71.8933 -59.3892 50.2074 -57.7541 16.2857 18.4601 -11.9513 32.7201 6.92943 -3.81849 110.953 -34.8446 100.228 30.1781 52.4582 78.454 15.6855 20.538 0.691114 -0.364386 -6.6192 -17.3081 -45.5601 40.2762 88.343 44.5852 -16.6017 1.91065 -1.70302e-008 1.55986e-007 -4.83939e-009 
94.5284 88.4294 -326.871 10.8677 -22.4573 33.019 -50.2448 -58.1429 -68.7235 -113.623 45.4508 126.755 21.7399 -0.679211 -12.0737 0.0462048 0.000533403 0.662642 -4.17062 46.4144 -4.35361 -8.71956 -3.04663 -0.534593 14.2403 11.241 -22.9877 -7.95139e-016 0 6.36111e-015 -101.889 -23.4331 -74.8708 -61.4304 50.6705 -55.4607 16.5696 19.0157 -12.7227 31.1387 7.11866 -3.22957 112.261 -32.2489 101.002 29.7589 52.8974 79.4551 15.4383 20.073 0.32953 -0.789056 -9.27149 -15.5149 -43.33 38.1956 87.856 46.7332 -15.0588 2.0892 -1.70302e-008 1.55986e-007 -4.83939e-009 
94.7348 88.5221 -329.293 9.17999 -20.4096 28.8079 -30.4984 -56.1442 -58.4193 -96.9475 40.4636 107.745 21.2912 -3.12544 -14.6116 0.0462048 0.000533403 0.662642 -4.34139 46.6953 -4.04308 -8.11033 -2.83611 -0.481141 14.4261 10.7349 -21.82 2.38542e-015 3.18055e-015 -3.18055e-015 -104.585 -26.2685 -78.4173 -63.4782 51.0724 -53.1558 20.1419 23.1794 -11.981 26.8539 6.47561 -4.89752 113.824 -27.0639 97.7709 29.8914 53.4426 80.6033 16.5005 15.7669 3.15635 -0.654096 -12.5964 -13.986 -41.5593 36.8381 87.2444 42.111 -13.1836 1.3467 -1.70302e-008 1.55986e-007 -4.83939e-009 
94.8846 88.6539 -331.594 7.98836 -17.8694 24.4663 -13.263 -51.5362 -48.7924 -83.1681 31.9578 90.38 20.936 -4.27283 -16.3345 0.0462048 0.000533403 0.662642 -5.30561 46.1666 -3.38708 -7.48529 -2.64637 -0.398904 14.222 10.2763 -20.2766 5.56597e-015 0 -9.54166e-015 -108.147 -30.3382 -82.3076 -65.5082 51.4282 -50.8138 25.2959 28.4541 -10.9908 23.0924 5.40201 -6.158 113.932 -22.4742 93.2411 30.696 53.9984 81.6759 16.5102 15.1777 4.3603 -0.348728 -16.0333 -12.3741 -39.1488 35.9204 86.5963 38.2268 -11.2424 0.823473 -1.70302e-008 1.55986e-007 -4.83939e-009 
95.0008 88.9934 -333.656 7.31705 -15.0005 20.0266 -0.35507 -44.8815 -41.6673 -72.5131 20.5146 72.8038 20.8908 -3.36916 -15.1503 0.0462048 0.000533403 0.662642 -6.94333 44.9395 -2.45241 -6.86156 -2.43262 -0.339661 13.6641 9.78892 -18.3766 1.59028e-015 0 -0 -112.962 -35.282 -86.9316 -67.4224 51.7927 -48.3991 27.5196 29.6394 -11.9137 19.7836 4.06134 -7.12424 112.979 -18.1024 87.9487 29.4659 54.0942 84.7504 16.2292 15.8012 4.76161 0.286019 -19.4315 -10.5811 -36.4892 35.3762 85.9148 34.7003 -9.3031 0.496246 -1.70302e-008 1.55986e-007 -4.8394e-009 
95.0525 89.5675 -335.298 8.03629 -11.9058 14.8742 7.39447 -37.3974 -35.6171 -64.4245 9.85436 54.2178 19.2652 -0.36653 -11.1592 0.0462048 0.000533403 0.662642 -10.6495 42.1278 -0.325078 -6.23828 -2.23486 -0.287267 12.1978 8.87625 -15.5143 3.18055e-015 3.18055e-015 -0 -121.232 -42.7029 -93.5601 -68.6285 52.8391 -45.7528 22.2039 22.024 -15.9251 18.5989 2.29541 -6.15325 110.862 -16.4211 84.0668 28.512 53.9373 87.2565 15.3082 18.6157 3.44395 1.21854 -22.6584 -8.31727 -34.0601 36.1279 85.2041 31.2402 -7.35245 0.401173 -1.70302e-008 1.55986e-007 -4.8394e-009 
95.1255 90.5094 -336.501 8.60171 -9.53883 10.4449 10.9164 -29.8371 -31.7728 -57.0855 0.883549 38.0154 15.565 2.46879 -8.02004 0.0462048 0.000533403 0.662642 -13.315 39.1524 0.729303 -5.61521 -2.00994 -0.236659 10.1415 7.35934 -11.9575 2.38542e-015 0 -0 -128.742 -47.8032 -99.7867 -70.1742 53.8839 -43.8056 21.5035 20.687 -15.8329 17.8707 1.50253 -5.57031 109.188 -14.6754 81.145 27.6123 53.8259 89.3976 15.5181 18.6937 3.07584 3.45329 -25.4966 -7.21661 -33.3837 38.0247 84.7813 25.1925 -5.78034 0.436707 -1.70302e-008 1.55986e-007 -4.83939e-009 
95.2506 91.8473 -337.37 8.91344 -7.8816 6.66981 10.7562 -24.2092 -28.559 -49.1623 -3.08064 26.6905 9.15895 2.96973 -7.13627 0.0462048 0.000533403 0.662642 -15.1076 36.1889 1.05369 -4.99242 -1.78202 -0.190817 7.86545 5.13916 -7.92645 -1.19271e-015 -6.36111e-015 -1.59028e-015 -135.05 -51.6416 -105.137 -71.7909 54.7443 -42.3751 19.1448 17.4895 -17.3558 17.5273 1.57994 -5.12609 107.822 -13.1366 78.872 26.6398 53.8668 91.3464 15.0573 20.0843 2.1033 7.1424 -27.8645 -7.17889 -36.8837 41.2864 84.5267 6.70588 -5.27022 0.142853 -1.70302e-008 1.55986e-007 -4.83939e-009 
95.4931 92.7785 -337.781 8.93051 -6.87335 3.46537 9.69921 -21.0392 -25.2326 -43.021 -3.28768 17.7232 2.74806 1.44219 -6.9706 0.0462048 0.000533403 0.662642 -16.1852 33.3385 0.919159 -4.36986 -1.55324 -0.149979 5.77233 2.13976 -3.59925 -5.96354e-016 -3.18055e-015 7.95139e-016 -140.103 -54.8578 -109.475 -73.2357 55.3685 -41.3204 19.2477 17.4289 -16.6219 17.4367 2.38905 -4.76323 106.695 -11.8804 77.0165 25.5591 54.0802 93.1809 15.1069 19.9566 1.81633 9.93248 -30.2 -7.35352 -39.578 42.2673 85.6036 9.02274 -3.43093 0.539531 -1.70302e-008 1.55986e-007 -4.8394e-009 
95.8591 93.9182 -338.064 8.64926 -6.42687 0.738134 1.01993 -24.769 -22.5192 -29.6089 14.4333 13.2898 -8.85518 -7.46656 -9.57874 0.0462048 0.000533403 0.662642 -16.6619 30.6435 0.515368 -3.74748 -1.32441 -0.114204 4.13874 -0.112182 0.266663 -1.2424e-015 -3.18055e-015 -2.98177e-016 -144.048 -57.8051 -112.838 -74.4716 55.8285 -40.5376 18.1969 16.086 -17.2605 17.4558 3.78612 -4.46628 105.785 -10.9277 75.4686 24.4227 54.3967 94.872 14.7269 20.6418 1.29161 13.9711 -31.1405 -7.68162 -45.0772 42.6953 86.7418 -9.26406 -3.49523 0.0661195 -1.70302e-008 1.55986e-007 -4.8394e-009 
96.3678 94.6388 -338.088 8.0835 -6.44108 -1.60743 -5.80815 -23.5623 -20.6287 -14.0303 20.7636 0.85585 -17.6599 -11.1046 -9.14244 0.0462048 0.000533403 0.662642 -16.6089 28.1173 -0.0341001 -3.12523 -1.09575 -0.0834855 2.83116 -1.67188 3.72325 -3.57812e-015 0 -7.95139e-016 -147.136 -60.6187 -115.377 -75.5232 56.1735 -39.8594 18.4288 16.3695 -16.629 17.4645 5.62126 -4.23953 105.078 -10.2592 74.1791 23.3096 54.7474 96.3751 14.6765 20.503 1.2357 16.7993 -32.7481 -8.21938 -48.4284 41.3107 88.3161 -2.39319 -1.88189 0.857738 -1.70302e-008 1.55986e-007 -4.83939e-009 
96.9822 95.1958 -338.047 7.23269 -6.79357 -3.64981 -7.58463 -21.1744 -16.9536 -5.90354 20.2001 -10.7858 -21.5403 -11.1448 -8.05113 0.0462048 0.000533403 0.662642 -16.041 25.7541 -0.67272 -2.50304 -0.86744 -0.0578096 1.73522 -2.61028 6.8001 -1.98785e-016 3.18055e-015 -0 -149.713 -63.3174 -117.355 -76.5857 56.4831 -39.0684 17.9503 15.8252 -16.9564 17.3624 7.74542 -4.06903 104.58 -9.83637 73.1476 22.3005 55.058 97.606 14.4462 20.8781 1.05338 19.0196 -33.4106 -9.12656 -49.5886 37.9441 87.6466 6.18534 -0.865113 1.10145 -1.70302e-008 1.55986e-007 -4.8394e-009 
97.6651 95.5627 -337.992 6.10329 -7.35725 -5.44601 -9.70197 -18.996 -12.895 2.78686 19.3905 -22.1111 -25.4649 -10.3513 -6.80306 0.0462048 0.000533403 0.662642 -14.9678 23.5405 -1.3843 -1.88086 -0.639544 -0.0371528 0.761698 -3.01131 9.51624 -3.97569e-016 3.18055e-015 -0 -152.197 -65.8361 -119.146 -77.8524 56.7918 -37.913 18.2274 16.1421 -16.5527 17.0782 10.0188 -3.93501 104.304 -9.59468 72.383 21.4383 55.2871 98.5096 14.4863 20.8152 1.13589 20.4649 -32.7938 -10.5355 -48.8774 33.3173 85.1507 15.6419 -0.0420395 1.15479 -1.70302e-008 1.55986e-007 -4.83939e-009 
98.3843 95.7503 -337.947 4.72053 -8.02789 -7.0542 -12.2085 -16.8391 -8.38973 12.2879 17.5968 -32.9658 -29.7667 -8.82335 -5.34614 0.0462048 0.000533403 0.662642 -13.4335 21.4675 -2.1466 -1.25863 -0.412146 -0.021492 -0.151669 -2.97115 11.8866 1.59028e-015 3.18055e-015 -0 -154.953 -68.0835 -121.116 -79.4588 57.1171 -36.2472 18.1348 15.9374 -16.7877 16.5687 12.3174 -3.81035 104.263 -9.4561 71.8958 20.7309 55.41 99.0429 14.485 21.0668 1.10992 21.2062 -30.9274 -12.4319 -46.7806 27.986 81.3322 25.3071 0.693029 1.07418 -1.70302e-008 1.55986e-007 -4.83939e-009 
99.1235 96.4586 -338.118 3.13916 -8.75898 -8.55688 -17.4319 -10.0849 -2.6153 25.9583 6.0049 -41.0576 -31.3315 -4.62656 -2.76225 0.0462048 0.000533403 0.662642 -11.5414 19.5453 -2.89617 -0.636302 -0.185387 -0.0108039 -1.04387 -2.5834 13.9273 -7.95139e-016 1.59028e-015 -0 -158.023 -69.9858 -123.346 -81.2758 57.4228 -34.1611 18.4833 16.175 -16.5982 15.8262 14.5473 -3.68723 104.443 -9.33702 71.6697 20.1479 55.4333 99.2221 14.6858 21.0679 1.21345 23.8807 -27.7723 -14.3727 -44.7664 21.9883 77.3645 6.17384 -1.06664 1.22754 -1.70302e-008 1.55986e-007 -4.8394e-009 
99.8852 96.6974 -338.018 1.37385 -9.50819 -10.007 -18.6159 -9.22399 2.48909 31.0838 5.56112 -48.196 -26.2608 -2.51672 -1.24337 0.0462048 0.000533403 0.662642 -9.30665 17.7783 -3.61155 -0.0138126 0.0398305 -0.00506194 -1.95217 -1.93583 15.6527 -2.38542e-015 0 -0 -161.017 -71.5132 -125.541 -82.9672 57.6626 -32.0185 18.528 16.2523 -16.966 15.0037 16.5893 -3.52889 104.696 -9.23966 71.6498 19.6506 55.3698 99.1065 14.6493 21.2328 1.43763 25.8581 -23.3649 -16.8081 -40.4166 15.9608 72.366 -13.51 -1.28297 0.345307 -1.70302e-008 1.55986e-007 -4.8394e-009 
